<?xml version="1.0" standalone="no"?>
<svg width="119px" height="27px" viewBox="0 0 119 27" version="1.1" xmlns="http://www.w3.org/2000/svg" xmlns:xlink="http://www.w3.org/1999/xlink">

<g transform="translate(0.000000,200.000000) scale(0.100000,-0.100000)"
fill="#000000" stroke="none">
<path d="M430 1085 c0 -8 4 -15 9 -15 11 0 2 -121 -10 -134 -20 -22 -8 -36 31
-36 33 0 40 3 40 20 0 11 -4 20 -10 20 -5 0 -10 17 -9 38 l0 37 18 -45 c25
-61 54 -66 72 -13 11 36 12 36 21 13 5 -15 5 -27 -2 -34 -22 -22 -10 -36 30
-36 33 0 40 3 40 20 0 11 -4 20 -9 20 -12 0 -22 113 -11 124 21 21 10 36 -24
36 -32 0 -35 -3 -51 -50 -9 -27 -20 -50 -25 -50 -5 0 -16 23 -25 50 -16 47
-19 50 -51 50 -24 0 -34 -5 -34 -15z"/>
<path d="M689 1042 c-17 -15 -22 -29 -22 -65 0 -66 13 -77 89 -77 49 0 64 3
64 14 0 8 -4 18 -10 21 -5 3 -10 30 -10 60 0 39 -4 54 -16 59 -30 11 -72 6
-95 -12z"/>
<path d="M1100 1053 c-42 -15 -57 -105 -22 -136 23 -21 90 -23 98 -2 9 23 -5
36 -25 25 -13 -6 -24 -5 -37 5 -18 14 -18 14 4 15 39 0 62 18 62 48 0 45 -31
62 -80 45z"/>
<path d="M1228 1052 c-25 -2 -38 -8 -38 -18 0 -8 5 -14 10 -14 6 0 10 -20 10
-45 0 -25 -4 -45 -10 -45 -5 0 -10 -7 -10 -15 0 -11 12 -15 45 -15 33 0 45 4
45 15 0 8 -7 15 -15 15 -10 0 -15 10 -15 34 0 18 7 39 15 46 10 9 15 9 15 1 0
-6 9 -11 20 -11 11 0 20 5 20 10 0 6 5 10 10 10 6 0 10 -30 10 -69 0 -39 -4
-73 -10 -76 -5 -3 -10 -13 -10 -21 0 -10 12 -14 45 -14 34 0 45 4 45 15 0 9
-7 18 -15 21 -25 10 -17 24 13 24 42 0 65 31 64 86 0 25 -5 51 -11 57 -10 10
-151 16 -233 9z"/>
<path d="M1646 1039 c-21 -16 -26 -29 -26 -63 0 -29 6 -48 18 -59 23 -21 90
-23 98 -2 9 22 -5 36 -25 26 -10 -6 -23 -6 -31 -1 -17 10 -15 13 25 26 22 7
31 16 33 37 7 56 -42 75 -92 36z"/>
<path d="M1788 1053 c-25 -3 -38 -9 -38 -19 0 -8 5 -14 10 -14 6 0 10 -30 10
-69 0 -39 -4 -73 -10 -76 -5 -3 -10 -13 -10 -21 0 -10 12 -14 45 -14 34 0 45
4 45 15 0 9 -7 18 -15 21 -25 10 -17 24 13 24 43 0 65 31 64 87 0 33 -6 51
-18 60 -18 13 -24 13 -96 6z"/>
</g>
</svg>
