<?xml version="1.0" encoding="UTF-8"?>
<svg xmlns="http://www.w3.org/2000/svg" xmlns:xlink="http://www.w3.org/1999/xlink" width="62pt" height="56pt" viewBox="0 0 62 56" version="1.1">
<g id="surface1">
<path style=" stroke:none;fill-rule:nonzero;fill:rgb(95.686275%,26.27451%,21.176471%);fill-opacity:1;" d="M 59.363281 12.460938 C 57.683594 9.757812 55.859375 9.261719 52.140625 9.070312 C 48.429688 8.84375 39.09375 8.75 31.007812 8.75 C 22.90625 8.75 13.566406 8.84375 9.859375 9.070312 C 6.148438 9.261719 4.320312 9.753906 2.625 12.460938 C 0.890625 15.160156 0 19.804688 0 27.988281 C 0 27.996094 0 28 0 28 C 0 28.007812 0 28.011719 0 28.011719 L 0 28.015625 C 0 36.164062 0.890625 40.847656 2.625 43.519531 C 4.320312 46.222656 6.144531 46.710938 9.855469 46.9375 C 13.566406 47.132812 22.90625 47.25 31.007812 47.25 C 39.09375 47.25 48.429688 47.132812 52.144531 46.941406 C 55.863281 46.714844 57.6875 46.222656 59.367188 43.523438 C 61.117188 40.851562 62 36.167969 62 28.019531 C 62 28.019531 62 28.011719 62 28.003906 C 62 28.003906 62 27.996094 62 27.992188 C 62 19.804688 61.117188 15.160156 59.363281 12.460938 Z M 59.363281 12.460938 "/>
<path style=" stroke:none;fill-rule:nonzero;fill:rgb(98.039216%,98.039216%,98.039216%);fill-opacity:1;" d="M 23.25 38.5 L 23.25 17.5 L 42.625 28 Z M 23.25 38.5 "/>
</g>
</svg>
