<?xml version="1.0" encoding="UTF-8"?>
<svg xmlns="http://www.w3.org/2000/svg" xmlns:xlink="http://www.w3.org/1999/xlink" width="62px" height="61px" viewBox="0 0 62 61" version="1.1">
<g id="surface1">
<path style=" stroke:none;fill-rule:nonzero;fill:rgb(95.686275%,26.27451%,21.176471%);fill-opacity:1;" d="M 55.175781 12.015625 C 53.617188 9.410156 51.921875 8.929688 48.464844 8.746094 C 45.015625 8.527344 36.335938 8.4375 28.820312 8.4375 C 21.292969 8.4375 12.609375 8.527344 9.164062 8.746094 C 5.714844 8.929688 4.015625 9.40625 2.441406 12.015625 C 0.828125 14.617188 0 19.097656 0 26.988281 C 0 26.996094 0 27 0 27 C 0 27.007812 0 27.011719 0 27.011719 L 0 27.015625 C 0 34.871094 0.828125 39.390625 2.441406 41.964844 C 4.015625 44.570312 5.710938 45.042969 9.160156 45.261719 C 12.609375 45.449219 21.292969 45.5625 28.820312 45.5625 C 36.335938 45.5625 45.015625 45.449219 48.46875 45.265625 C 51.925781 45.046875 53.621094 44.570312 55.179688 41.96875 C 56.808594 39.390625 57.628906 34.875 57.628906 27.019531 C 57.628906 27.019531 57.628906 27.011719 57.628906 27.003906 C 57.628906 27.003906 57.628906 26.996094 57.628906 26.992188 C 57.628906 19.097656 56.808594 14.617188 55.175781 12.015625 Z M 55.175781 12.015625 "/>
<path style=" stroke:none;fill-rule:nonzero;fill:rgb(98.039216%,98.039216%,98.039216%);fill-opacity:1;" d="M 21.609375 37.125 L 21.609375 16.875 L 39.621094 27 Z M 21.609375 37.125 "/>
</g>
</svg>
