<?xml version="1.0" encoding="UTF-8"?>
<svg xmlns="http://www.w3.org/2000/svg" xmlns:xlink="http://www.w3.org/1999/xlink" width="58pt" height="58pt" viewBox="0 0 58 58" version="1.1">
<g id="surface1">
<path style=" stroke:none;fill-rule:nonzero;fill:rgb(95.686275%,26.27451%,21.176471%);fill-opacity:1;" d="M 51.617188 11.425781 C 50.15625 8.949219 48.570312 8.492188 45.339844 8.316406 C 42.113281 8.109375 33.992188 8.023438 26.960938 8.023438 C 19.917969 8.023438 11.796875 8.109375 8.574219 8.316406 C 5.347656 8.492188 3.757812 8.945312 2.285156 11.425781 C 0.773438 13.898438 0 18.160156 0 25.660156 C 0 25.667969 0 25.671875 0 25.671875 C 0 25.679688 0 25.683594 0 25.683594 L 0 25.6875 C 0 33.15625 0.773438 37.453125 2.285156 39.902344 C 3.757812 42.378906 5.34375 42.828125 8.570312 43.035156 C 11.796875 43.214844 19.917969 43.320312 26.960938 43.320312 C 33.992188 43.320312 42.113281 43.214844 45.339844 43.039062 C 48.574219 42.832031 50.160156 42.378906 51.621094 39.90625 C 53.144531 37.453125 53.910156 33.160156 53.910156 25.691406 C 53.910156 25.691406 53.910156 25.683594 53.910156 25.675781 C 53.910156 25.675781 53.910156 25.667969 53.910156 25.664062 C 53.910156 18.160156 53.144531 13.898438 51.617188 11.425781 Z M 51.617188 11.425781 "/>
<path style=" stroke:none;fill-rule:nonzero;fill:rgb(98.039216%,98.039216%,98.039216%);fill-opacity:1;" d="M 20.214844 35.300781 L 20.214844 16.046875 L 37.066406 25.671875 Z M 20.214844 35.300781 "/>
</g>
</svg>
